<svg width="584" height="423" viewBox="0 0 584 423" fill="none" xmlns="http://www.w3.org/2000/svg">
<path d="M369.09 54.53L369.3 61.12C369.309 61.3481 369.373 61.5706 369.486 61.769C369.599 61.9673 369.758 62.1357 369.95 62.26L375.5 65.86C375.721 66.0021 375.897 66.203 376.01 66.4401C376.123 66.6771 376.167 66.9409 376.138 67.2018C376.109 67.4626 376.007 67.7102 375.845 67.9166C375.683 68.123 375.466 68.28 375.22 68.37L369.02 70.61C368.801 70.6907 368.605 70.8241 368.45 70.9985C368.294 71.173 368.185 71.383 368.13 71.61L366.5 77.92C366.432 78.173 366.296 78.4023 366.106 78.5821C365.915 78.7619 365.679 78.8852 365.422 78.9382C365.166 78.9911 364.9 78.9716 364.654 78.8819C364.408 78.7921 364.192 78.6357 364.03 78.43L359.98 73.22C359.838 73.0399 359.655 72.8967 359.446 72.8026C359.237 72.7086 359.009 72.6665 358.78 72.68L352.2 73.07C351.937 73.0857 351.675 73.0273 351.443 72.9017C351.212 72.776 351.02 72.588 350.89 72.359C350.76 72.13 350.697 71.8692 350.707 71.606C350.718 71.3428 350.802 71.0878 350.95 70.87L354.65 65.41C354.777 65.219 354.856 65.0008 354.882 64.773C354.908 64.5453 354.88 64.3147 354.8 64.1L352.4 57.96C352.304 57.7153 352.278 57.4487 352.326 57.1903C352.374 56.9318 352.493 56.6918 352.669 56.4974C352.846 56.3029 353.074 56.1617 353.327 56.0897C353.579 56.0178 353.847 56.0179 354.1 56.09L360.44 57.92C360.658 57.9831 360.889 57.9924 361.112 57.9472C361.335 57.9019 361.543 57.8034 361.72 57.66L366.82 53.48C367.025 53.326 367.268 53.2304 367.523 53.2034C367.778 53.1765 368.036 53.2191 368.269 53.3268C368.501 53.4345 368.701 53.6032 368.845 53.815C368.99 54.0269 369.074 54.274 369.09 54.53Z" fill="#DDDDDD" stroke="#DDDDDD" stroke-miterlimit="10"/>
<path d="M513.5 117.86L518.34 122.34C518.509 122.493 518.713 122.604 518.934 122.663C519.155 122.723 519.386 122.728 519.61 122.68L526.04 121.23C526.302 121.165 526.576 121.177 526.832 121.263C527.087 121.35 527.312 121.507 527.48 121.718C527.649 121.928 527.753 122.182 527.781 122.45C527.81 122.719 527.761 122.989 527.64 123.23L524.88 129.23C524.783 129.437 524.738 129.664 524.748 129.892C524.759 130.121 524.825 130.343 524.94 130.54L528.31 136.21C528.444 136.436 528.513 136.696 528.507 136.959C528.502 137.222 528.423 137.479 528.279 137.699C528.136 137.92 527.933 138.096 527.695 138.207C527.456 138.319 527.191 138.361 526.93 138.33L520.39 137.56C520.162 137.531 519.931 137.559 519.716 137.641C519.502 137.723 519.311 137.857 519.16 138.03L514.81 142.98C514.638 143.181 514.414 143.329 514.162 143.407C513.91 143.486 513.64 143.491 513.385 143.423C513.13 143.355 512.9 143.217 512.72 143.023C512.54 142.83 512.419 142.589 512.37 142.33L511.08 135.86C511.032 135.639 510.931 135.433 510.787 135.259C510.643 135.085 510.458 134.948 510.25 134.86L504.25 132.25C504.006 132.149 503.796 131.982 503.643 131.766C503.491 131.551 503.402 131.297 503.387 131.034C503.373 130.771 503.433 130.509 503.561 130.278C503.689 130.047 503.879 129.857 504.11 129.73L509.87 126.51C510.069 126.396 510.238 126.236 510.362 126.042C510.485 125.849 510.56 125.629 510.58 125.4L511.19 118.84C511.209 118.581 511.299 118.333 511.45 118.122C511.601 117.911 511.807 117.746 512.046 117.644C512.284 117.543 512.547 117.51 512.803 117.548C513.06 117.586 513.301 117.694 513.5 117.86Z" fill="#DDDDDD" stroke="#DDDDDD" stroke-miterlimit="10"/>
<path d="M37.31 74.67H12.63C9.42984 74.5787 6.3914 73.2433 4.16014 70.9475C1.92889 68.6517 0.680664 65.5764 0.680664 62.375C0.680664 59.1736 1.92889 56.0983 4.16014 53.8025C6.3914 51.5067 9.42984 50.1713 12.63 50.08H37.31" stroke="#DDDDDD" stroke-miterlimit="10"/>
<path d="M37.0199 290.54H31.6399C27.3884 290.54 23.3112 288.851 20.3049 285.845C17.2987 282.839 15.6099 278.761 15.6099 274.51C15.6099 270.259 17.2987 266.181 20.3049 263.175C23.3112 260.169 27.3884 258.48 31.6399 258.48H37.3099" stroke="#DDDDDD" stroke-miterlimit="10"/>
<path d="M412.98 362.09H378.84C370.136 362.09 363.08 369.146 363.08 377.85V378.4C363.08 387.104 370.136 394.16 378.84 394.16H412.98C421.684 394.16 428.74 387.104 428.74 378.4V377.85C428.74 369.146 421.684 362.09 412.98 362.09Z" stroke="#DDDDDD" stroke-miterlimit="10"/>
<path d="M565.74 382.49H515.81C512.784 382.49 510.33 384.943 510.33 387.97V388.16C510.33 391.186 512.784 393.64 515.81 393.64H565.74C568.767 393.64 571.22 391.186 571.22 388.16V387.97C571.22 384.943 568.767 382.49 565.74 382.49Z" stroke="#DDDDDD" stroke-miterlimit="10"/>
<path d="M563.44 46.79H570.36C572.004 46.7431 573.641 47.0264 575.174 47.6232C576.706 48.22 578.104 49.1181 579.283 50.2645C580.463 51.4108 581.4 52.7821 582.04 54.2971C582.681 55.8121 583.011 57.4402 583.011 59.085C583.011 60.7298 582.681 62.3578 582.04 63.8729C581.4 65.3879 580.463 66.7592 579.283 67.9055C578.104 69.0519 576.706 69.95 575.174 70.5468C573.641 71.1436 572.004 71.4269 570.36 71.38H563.44" stroke="#DDDDDD" stroke-miterlimit="10"/>
<path d="M531.88 348.02H68.8801C60.5131 348.009 52.4918 344.681 46.5755 338.765C40.6591 332.848 37.3307 324.827 37.3201 316.46V32.56C37.328 24.1922 40.6556 16.1694 46.5725 10.2525C52.4895 4.33555 60.5123 1.00794 68.8801 1H531.88C540.248 1.00794 548.271 4.33555 554.188 10.2525C560.104 16.1694 563.432 24.1922 563.44 32.56V316.46C563.432 324.828 560.104 332.851 554.188 338.768C548.271 344.684 540.248 348.012 531.88 348.02Z" stroke="#DDDDDD" stroke-width="2" stroke-linecap="round" stroke-linejoin="round"/>
<path d="M531.89 23.39H68.8699C63.8055 23.39 59.7 27.4956 59.7 32.56V316.46C59.7 321.524 63.8055 325.63 68.8699 325.63H531.89C536.954 325.63 541.06 321.524 541.06 316.46V32.56C541.06 27.4956 536.954 23.39 531.89 23.39Z" stroke="#DDDDDD" stroke-width="2" stroke-miterlimit="10"/>
<path d="M514.66 227.4V260.82H430.08V141.67" stroke="#DDDDDD" stroke-linecap="round" stroke-linejoin="round"/>
<path d="M514.66 143.09V161.76" stroke="#DDDDDD" stroke-linecap="round" stroke-linejoin="round"/>
<path d="M444.97 126.37H509.85" stroke="#DDDDDD" stroke-linecap="round" stroke-linejoin="round"/>
<path d="M476.42 142.31H493.91" stroke="#DDDDDD" stroke-linecap="round" stroke-linejoin="round"/>
<path d="M476.42 150.5H490.57" stroke="#DDDDDD" stroke-linecap="round" stroke-linejoin="round"/>
<path d="M444.6 191.13H457.5" stroke="#DDDDDD" stroke-linecap="round" stroke-linejoin="round"/>
<path d="M444.6 202.39H451.55" stroke="#DDDDDD" stroke-linecap="round" stroke-linejoin="round"/>
<path d="M529.98 161.76H487.01V227.4H529.98V161.76Z" stroke="#DDDDDD" stroke-linecap="round" stroke-linejoin="round"/>
<path d="M502.76 173.04H514.66" stroke="#DDDDDD" stroke-linecap="round" stroke-linejoin="round"/>
<path d="M507.84 181.84H514.66" stroke="#DDDDDD" stroke-linecap="round" stroke-linejoin="round"/>
<path d="M274.33 213.41C276.87 219.34 261.62 230.41 252.99 225.27C248.06 232.58 233.22 227.56 236.76 223.27C227.51 224.08 217.09 219.27 221.3 211.32C209.83 206.87 215.3 196.69 226.69 196.45C216.85 182.45 224.69 171.88 240.79 172.92C240.62 155.92 261.57 156.65 263.22 174.22C275.5 169.86 285.69 182.5 277.5 192.45C288.73 197.86 284.05 209.78 274.33 213.41Z" stroke="#DDDDDD" stroke-linecap="round" stroke-linejoin="round"/>
<path d="M237.99 182.09H266.3C266.3 182.09 270.6 197.87 264.3 214.18L234.63 213.72C234.63 213.72 242.63 196.33 237.99 182.09Z" stroke="#DDDDDD" stroke-linecap="round" stroke-linejoin="round"/>
<path d="M244.37 190.09H258.78" stroke="#DDDDDD" stroke-linecap="round" stroke-linejoin="round"/>
<path d="M245.29 196.34H256.18" stroke="#DDDDDD" stroke-linecap="round" stroke-linejoin="round"/>
<path d="M244.58 202.31H259.69" stroke="#DDDDDD" stroke-linecap="round" stroke-linejoin="round"/>
<path d="M436.75 135.55C433.57 142.73 421.97 145.35 415.36 140.78C412.29 148.4 398.27 150.07 391.14 146.42C393.26 136.78 387.53 130.95 380.26 130.81C378.13 124.6 379.76 117.75 385.16 115.47C380.5 105.75 388.42 100.47 396.67 104.93C396.42 95.3 408.42 84.93 421.16 95.54C430.71 88.29 443.85 98.81 437.97 113.26C449.16 116.04 446.3 137.02 436.75 135.55Z" fill="#DDDDDD" stroke="#DDDDDD" stroke-miterlimit="10"/>
<path d="M142.61 49.08H187.43C185.43 62.86 188.43 85.45 197.38 103.2H148.01C148.01 103.2 133.44 91.4 142.61 49.08Z" stroke="#DDDDDD" stroke-width="2" stroke-linecap="round" stroke-linejoin="round"/>
<path d="M308.39 84.01L345.75 84.09C345.75 84.09 351.18 102.48 339.25 122.35L298.82 120.71C298.82 120.71 311.15 102.86 308.39 84.01Z" stroke="#DDDDDD" stroke-linecap="round" stroke-linejoin="round"/>
<path d="M315.21 92.96H339.61" stroke="#DDDDDD" stroke-linecap="round" stroke-linejoin="round"/>
<path d="M315.56 101.14H335.03" stroke="#DDDDDD" stroke-linecap="round" stroke-linejoin="round"/>
<path d="M315.21 111.85H324.41" stroke="#DDDDDD" stroke-linecap="round" stroke-linejoin="round"/>
<path d="M326.49 111.85H332.61" stroke="#DDDDDD" stroke-linecap="round" stroke-linejoin="round"/>
<path d="M208.78 36.33L282.91 37.33C282.91 37.33 288.41 67.89 277.06 107.62H201.06C201.06 107.62 213.72 73.2 208.78 36.33Z" stroke="#DDDDDD" stroke-linecap="round" stroke-linejoin="round"/>
<path d="M249.9 64.36L271.36 65.02" stroke="#DDDDDD" stroke-linecap="round" stroke-linejoin="round"/>
<path d="M259.09 58.68L272.24 59.09" stroke="#DDDDDD" stroke-linecap="round" stroke-linejoin="round"/>
<path d="M269.06 53.36L273.23 53.49" stroke="#DDDDDD" stroke-linecap="round" stroke-linejoin="round"/>
<path d="M265.86 46.59L273.23 46.82" stroke="#DDDDDD" stroke-linecap="round" stroke-linejoin="round"/>
<path d="M269.07 76.98H248.26V96.31H269.07V76.98Z" fill="#DDDDDD" stroke="#DDDDDD" stroke-miterlimit="10"/>
<path d="M360.74 143.66H379.13" stroke="#DDDDDD" stroke-linecap="round" stroke-linejoin="round"/>
<path d="M356.78 151.76H375.17" stroke="#DDDDDD" stroke-linecap="round" stroke-linejoin="round"/>
<path d="M354.02 160.47H372.41" stroke="#DDDDDD" stroke-linecap="round" stroke-linejoin="round"/>
<path d="M387.83 164.24C391.19 174.91 374.99 182.02 367.48 171.16C359.77 184.39 329.48 176.09 342.97 160.59C333.44 159.71 335.04 141.23 345.97 142.79C340.25 126.11 363.37 120 369.69 134.61C372.689 132.176 376.428 130.836 380.29 130.81C387.56 130.95 393.29 136.81 391.17 146.42C391.03 147.08 390.85 147.75 390.63 148.42C400.08 152.19 394.74 163.65 387.83 164.24Z" stroke="#DDDDDD" stroke-linecap="round" stroke-linejoin="round"/>
<path d="M402.9 109.04H422.64" stroke="#F9F9F9" stroke-linecap="round" stroke-linejoin="round"/>
<path d="M402.41 117.24H418.64" stroke="#F9F9F9" stroke-linecap="round" stroke-linejoin="round"/>
<path d="M401.85 128.23H413.8" stroke="#F9F9F9" stroke-linecap="round" stroke-linejoin="round"/>
<path d="M466.95 145.1H442.73V178.41H466.95V145.1Z" fill="#DDDDDD" stroke="#DDDDDD" stroke-linecap="round" stroke-linejoin="round"/>
<path d="M337.29 81.4L351.31 96.31L356.02 90.32L342.58 76.98L337.29 81.4Z" fill="#DDDDDD" stroke="#DDDDDD" stroke-miterlimit="10"/>
<path d="M301.14 88.96L315.21 73.96L320.63 78.98L306.81 95.32L301.14 88.96Z" fill="#DDDDDD" stroke="#DDDDDD" stroke-miterlimit="10"/>
<path d="M479.18 166.25L484.63 170.94C484.63 170.94 497.95 156.77 497.7 156.77C497.45 156.77 491.64 152.43 491.64 152.43L479.18 166.25Z" fill="#DDDDDD" stroke="#DDDDDD" stroke-miterlimit="10"/>
<path d="M518.11 158.22L524.09 153.1L538.35 168.21L531.77 173.85L518.11 158.22Z" fill="#DDDDDD" stroke="#DDDDDD" stroke-miterlimit="10"/>
<path d="M520.27 84.32C517.309 92.2588 511.69 98.9273 504.369 103.192C497.047 107.457 488.475 109.054 480.108 107.713C471.742 106.372 464.098 102.176 458.477 95.8363C452.855 89.4971 449.601 81.4065 449.27 72.94C451.183 76.968 454.056 80.4647 457.636 83.1228C461.216 85.7809 465.394 87.519 469.804 88.1845C474.213 88.85 478.718 88.4225 482.923 86.9395C487.129 85.4566 490.905 82.9635 493.922 79.6795C496.938 76.3954 499.102 72.4208 500.223 68.1049C501.344 63.7889 501.388 59.2637 500.351 54.9269C499.314 50.59 497.228 46.5741 494.276 43.2321C491.323 39.8902 487.596 37.3243 483.42 35.76C482.72 35.5 482.03 35.27 481.33 35.08C487.593 34.2931 493.952 35.1355 499.794 37.5259C505.636 39.9163 510.762 43.7736 514.677 48.725C518.591 53.6763 521.162 59.554 522.14 65.7897C523.118 72.0253 522.471 78.4079 520.26 84.32H520.27Z" fill="#DDDDDD" stroke="#DDDDDD" stroke-linecap="round" stroke-linejoin="round"/>
<path d="M139.64 36.86L144.64 41.17C144.812 41.3184 145.018 41.4224 145.239 41.473C145.46 41.5235 145.691 41.5191 145.91 41.46L152.29 39.8C152.545 39.7327 152.813 39.738 153.065 39.8155C153.317 39.8929 153.542 40.0394 153.715 40.2382C153.887 40.4371 154.001 40.6803 154.043 40.9405C154.084 41.2006 154.052 41.4672 153.95 41.71L151.39 47.79C151.303 48.0001 151.268 48.2283 151.289 48.4548C151.31 48.6814 151.386 48.8994 151.51 49.09L155.06 54.65C155.2 54.871 155.276 55.1267 155.279 55.3883C155.282 55.6499 155.212 55.9071 155.077 56.1313C154.942 56.3554 154.747 56.5376 154.515 56.6575C154.282 56.7773 154.021 56.8302 153.76 56.81L147.19 56.26C146.962 56.2387 146.732 56.2741 146.521 56.3631C146.31 56.4521 146.124 56.5919 145.98 56.77L141.8 61.86C141.632 62.0618 141.411 62.2131 141.162 62.2969C140.913 62.3807 140.646 62.3938 140.39 62.3348C140.134 62.2757 139.899 62.1468 139.712 61.9623C139.525 61.7779 139.393 61.5451 139.33 61.29L137.83 54.87C137.778 54.6462 137.673 54.4383 137.523 54.2641C137.373 54.0899 137.184 53.9547 136.97 53.87L130.83 51.47C130.585 51.3746 130.371 51.2125 130.213 51.0019C130.055 50.7913 129.959 50.5407 129.936 50.2784C129.913 50.0162 129.964 49.7527 130.083 49.518C130.202 49.2832 130.385 49.0864 130.61 48.95L136.25 45.54C136.447 45.4213 136.612 45.2563 136.73 45.0594C136.849 44.8624 136.917 44.6395 136.93 44.41L137.31 37.83C137.328 37.5684 137.418 37.317 137.571 37.104C137.724 36.891 137.933 36.7247 138.175 36.624C138.417 36.5232 138.682 36.4919 138.941 36.5336C139.2 36.5753 139.442 36.6883 139.64 36.86Z" fill="#DDDDDD" stroke="#DDDDDD" stroke-miterlimit="10"/>
<path d="M77.16 408.06L83.5 382.72H144.87L138.5 408.06H77.16ZM151.15 408.06L218.15 140.9C218.347 140.119 218.388 139.307 218.271 138.511C218.155 137.714 217.882 136.948 217.469 136.257C217.057 135.566 216.512 134.962 215.866 134.482C215.22 134.001 214.486 133.652 213.705 133.455C212.924 133.258 212.112 133.217 211.316 133.334C210.519 133.45 209.753 133.723 209.062 134.136C208.371 134.548 207.767 135.093 207.287 135.739C206.806 136.385 206.457 137.119 206.26 137.9L199.73 163.96H138.35L144.13 140.86C144.327 140.079 144.368 139.267 144.251 138.471C144.135 137.674 143.862 136.908 143.449 136.217C143.037 135.526 142.492 134.922 141.846 134.442C141.2 133.961 140.466 133.612 139.685 133.415C138.904 133.218 138.092 133.177 137.296 133.294C136.499 133.41 135.733 133.683 135.042 134.096C134.351 134.508 133.747 135.053 133.267 135.699C132.786 136.345 132.437 137.079 132.24 137.86L64.5 408.06H151.15ZM197.4 173.16L187.11 214.16H125.76L136.05 173.16H197.4ZM184.81 223.36L165.91 298.86H104.5L123.5 223.36H184.81ZM147.19 373.54H85.82L102.24 308.03H163.61L147.19 373.54Z" fill="#DDDDDD" stroke="#DDDDDD" stroke-width="2" stroke-linecap="round" stroke-linejoin="round"/>
<path d="M569.13 320.72C569.96 326.03 564.01 331.38 559.63 333.57C559.63 333.57 554.52 322.14 554.89 322.14C555.26 322.14 563.91 317.23 569.13 320.72Z" fill="#82C47A"/>
<path d="M537.09 413.31C515.19 428.96 487.28 418.31 487.28 418.31V410.14C464.92 410.49 441.28 403.36 441.28 403.36C439.79 386.36 442.6 365.56 444.33 354.97C445.03 350.7 445.56 348.1 445.56 348.1C458.89 343.76 535.84 345.3 535.84 345.3C536.13 347.82 536.35 350.78 536.54 354.04C537.88 376.65 537.09 413.31 537.09 413.31Z" fill="#6DB5B2"/>
<mask id="mask0_601_3600" style="mask-type:alpha" maskUnits="userSpaceOnUse" x="440" y="345" width="98" height="77">
<path d="M537.09 413.31C515.19 428.96 487.28 418.31 487.28 418.31V410.14C464.92 410.49 441.28 403.36 441.28 403.36C439.79 386.36 442.6 365.56 444.33 354.97C445.03 350.7 445.56 348.1 445.56 348.1C458.89 343.76 535.84 345.3 535.84 345.3C536.13 347.82 536.35 350.78 536.54 354.04C537.88 376.65 537.09 413.31 537.09 413.31Z" fill="#6DB5B2"/>
</mask>
<g mask="url(#mask0_601_3600)">
<path d="M537.99 368.49H532.84V373.64H537.99V368.49Z" stroke="white" stroke-width="0.75" stroke-linecap="round" stroke-linejoin="round"/>
<path d="M512.9 368.49H507.75V373.64H512.9V368.49Z" stroke="white" stroke-width="0.75" stroke-linecap="round" stroke-linejoin="round"/>
<path d="M487.82 368.49H482.67V373.64H487.82V368.49Z" stroke="white" stroke-width="0.75" stroke-linecap="round" stroke-linejoin="round"/>
<path d="M462.74 368.49H457.59V373.64H462.74V368.49Z" stroke="white" stroke-width="0.75" stroke-linecap="round" stroke-linejoin="round"/>
<path d="M537.99 400.31H532.84V405.46H537.99V400.31Z" stroke="white" stroke-width="0.75" stroke-linecap="round" stroke-linejoin="round"/>
<path d="M512.9 400.31H507.75V405.46H512.9V400.31Z" stroke="white" stroke-width="0.75" stroke-linecap="round" stroke-linejoin="round"/>
<path d="M487.82 400.31H482.67V405.46H487.82V400.31Z" stroke="white" stroke-width="0.75" stroke-linecap="round" stroke-linejoin="round"/>
<path d="M462.74 400.31H457.59V405.46H462.74V400.31Z" stroke="white" stroke-width="0.75" stroke-linecap="round" stroke-linejoin="round"/>
<path d="M451.22 350H440.93V360.29H451.22V350Z" stroke="white" stroke-width="0.75" stroke-linecap="round" stroke-linejoin="round"/>
<path d="M476.92 350H466.63V360.29H476.92V350Z" stroke="white" stroke-width="0.75" stroke-linecap="round" stroke-linejoin="round"/>
<path d="M502.62 350H492.33V360.29H502.62V350Z" stroke="white" stroke-width="0.75" stroke-linecap="round" stroke-linejoin="round"/>
<path d="M528.32 350H518.03V360.29H528.32V350Z" stroke="white" stroke-width="0.75" stroke-linecap="round" stroke-linejoin="round"/>
<path d="M451.22 381.83H440.93V392.12H451.22V381.83Z" stroke="white" stroke-width="0.75" stroke-linecap="round" stroke-linejoin="round"/>
<path d="M476.92 381.83H466.63V392.12H476.92V381.83Z" stroke="white" stroke-width="0.75" stroke-linecap="round" stroke-linejoin="round"/>
<path d="M502.62 381.83H492.33V392.12H502.62V381.83Z" stroke="white" stroke-width="0.75" stroke-linecap="round" stroke-linejoin="round"/>
<path d="M528.32 381.83H518.03V392.12H528.32V381.83Z" stroke="white" stroke-width="0.75" stroke-linecap="round" stroke-linejoin="round"/>
<path d="M451.22 413.65H440.93V423.94H451.22V413.65Z" stroke="white" stroke-width="0.75" stroke-linecap="round" stroke-linejoin="round"/>
<path d="M476.92 413.65H466.63V423.94H476.92V413.65Z" stroke="white" stroke-width="0.75" stroke-linecap="round" stroke-linejoin="round"/>
<path d="M502.62 413.65H492.33V423.94H502.62V413.65Z" stroke="white" stroke-width="0.75" stroke-linecap="round" stroke-linejoin="round"/>
<path d="M528.32 413.65H518.03V423.94H528.32V413.65Z" stroke="white" stroke-width="0.75" stroke-linecap="round" stroke-linejoin="round"/>
</g>
<path d="M536.57 354.08C523.725 356.756 510.68 358.365 497.57 358.89C490.83 359.22 483.98 359.31 477.33 359.13C465.03 358.79 453.41 357.52 444.33 355.01C445.03 350.74 445.56 348.14 445.56 348.14C450.28 346.61 462.94 345.8 477.34 345.41C483.92 345.23 490.86 345.14 497.58 345.1C517.75 344.97 535.84 345.34 535.84 345.34C536.16 347.86 536.38 350.86 536.57 354.08Z" fill="#3F474C"/>
<path d="M497.61 345.1V358.86C490.87 359.19 484.02 359.28 477.37 359.1V345.41C483.95 345.23 490.89 345.14 497.61 345.1Z" fill="white"/>
<path d="M487.28 410.18L487.49 388.07" stroke="#8FC6C4" stroke-width="0.75" stroke-linecap="round" stroke-linejoin="round"/>
<path d="M569.13 320.72C569.13 320.72 566.13 321.28 561.68 322.6C554.4 324.702 547.386 327.638 540.78 331.35C539.56 332.05 534.24 337.7 528.93 342.53C525 346.11 521.06 349.24 518.81 349.53C507.41 351.225 495.895 352.024 484.37 351.92C482.237 351.92 480.177 351.863 478.19 351.75C467.242 351.417 456.34 350.197 445.59 348.1C446.21 348.1 445.27 339.34 444.38 330.82C444.16 328.64 443.94 326.47 443.74 324.47C443.43 324.68 424.51 311.47 422.88 310.28L422.77 310.2C422.77 310.2 422.86 309.71 423.06 308.82C424.17 303.82 428.56 286.13 437.31 272.53C439.196 269.544 441.384 266.759 443.84 264.22C456.65 251.22 471.74 247.02 487.01 245.84C502.28 244.66 504.09 244.29 504.09 244.29C517.79 249.04 533.09 251.88 544.09 265.08C546.506 268.148 548.613 271.448 550.38 274.93C559.83 292.53 569.13 320.72 569.13 320.72Z" fill="#A3D49D"/>
<path d="M451.7 284.16C449.45 293.5 445.23 309.23 445.4 325.71C445.4 325.3 424.51 311.46 422.88 310.32L423.06 308.86C429.58 305.79 433.72 307.86 437.31 309.37C445.4 312.68 441.42 285.96 451.56 284.18L451.7 284.16Z" fill="#82C47A"/>
<path d="M528.93 342.53C525 346.11 521.06 349.24 518.81 349.53C507.41 351.225 495.895 352.024 484.37 351.92C482.237 351.92 480.177 351.863 478.19 351.75C482.03 345.94 490.19 336.39 501.86 338.62C518.33 341.79 521.38 314.73 518.33 303.22C515.28 291.71 523 287.03 523 287.03C523.256 294.094 524.136 301.121 525.63 308.03C525.63 308.23 525.72 308.44 525.77 308.65C527.6 317.41 528.5 332.86 528.93 342.53Z" fill="#82C47A"/>
<path d="M550.4 274.97C536.57 271.6 522.99 272.71 517.04 278.51C504.92 290.37 481.38 306.4 467.79 289.19C458.99 278.04 449.34 271.04 437.31 272.57C439.196 269.584 441.384 266.799 443.84 264.26C456.65 251.26 471.74 247.06 487.01 245.88C502.28 244.7 504.09 244.33 504.09 244.33C517.79 249.08 533.09 251.92 544.09 265.12C546.513 268.187 548.627 271.487 550.4 274.97Z" fill="#A3D49D"/>
<path d="M526.43 311.58C526.19 310.58 525.98 309.65 525.77 308.69C525.77 308.48 525.67 308.27 525.63 308.07C524.137 301.161 523.256 294.134 523 287.07V287.07C522.91 284.216 522.963 281.359 523.16 278.51" stroke="#82C47A" stroke-width="0.75" stroke-linecap="round" stroke-linejoin="round"/>
<path d="M529.24 259.01C527.209 261.544 525.752 264.489 524.97 267.64" stroke="#82C47A" stroke-width="0.75" stroke-linecap="round" stroke-linejoin="round"/>
<path d="M488.12 264.86C486.63 271.86 487.27 281.55 487.27 281.55" stroke="#82C47A" stroke-width="0.75" stroke-linecap="round" stroke-linejoin="round"/>
<path d="M445.4 323.63C445.4 304.57 453.4 277.37 453.4 277.37" stroke="#82C47A" stroke-width="0.75" stroke-linecap="round" stroke-linejoin="round"/>
<path d="M478.04 245.86C472.83 245.86 471.6 259.91 473.86 266.79C475.73 272.49 483.86 262.49 490 256.51L478.04 245.86Z" fill="white"/>
<path d="M486.59 255.97C492.88 262.19 498.91 269.28 501.43 268.27C503.95 267.26 510.3 249.03 508.49 244.77C507.913 243.486 507.077 242.334 506.034 241.388C504.991 240.441 503.764 239.72 502.43 239.27L486.59 255.97Z" fill="white"/>
<path d="M488.12 256.3C499.12 254.02 502.43 239.3 502.43 239.3C487.07 239.3 478.04 245.91 478.04 245.91C478.04 245.91 476.23 258.77 488.12 256.3Z" fill="white"/>
<path d="M445.4 323.63C442.47 313.14 435.89 310.18 430.59 309.63C427.999 309.369 425.383 309.604 422.88 310.32C416.09 336.26 413.36 345.04 422.41 347.75C431.46 350.46 440.76 345.02 445.41 340.95C445.87 331.91 445.4 323.63 445.4 323.63Z" fill="#FEBD9D"/>
<path d="M562.67 349.51C556.17 361.84 548.36 362.34 538.84 360.28C528.43 357.07 535.09 339.37 540.78 331.35C547.386 327.638 554.399 324.702 561.68 322.6C564.24 330.59 567.8 339.8 562.67 349.51Z" fill="#FEBD9D"/>
<path d="M502.03 279.42C497.764 276.888 492.8 275.786 487.863 276.276C482.927 276.765 478.276 278.82 474.59 282.14L476.2 275.3L468.2 273.17C460.26 297.52 466.44 318.81 488.73 318.01L511.2 304.77C511.2 304.77 516.41 287.37 502.03 279.42ZM493.66 306.73H493.56C491.467 306.716 489.432 306.045 487.74 304.812C486.049 303.579 484.787 301.847 484.132 299.859C483.477 297.872 483.462 295.728 484.09 293.732C484.717 291.735 485.956 289.986 487.63 288.73H487.74C489.832 288.747 491.866 289.419 493.556 290.653C495.246 291.886 496.506 293.618 497.16 295.606C497.813 297.593 497.827 299.735 497.199 301.731C496.572 303.727 495.334 305.475 493.66 306.73Z" fill="#F9F9F9" stroke="#DDDDDD" stroke-linecap="round" stroke-linejoin="round"/>
<path d="M493.66 306.73C492.392 307.681 490.917 308.317 489.355 308.585C487.794 308.854 486.191 308.748 484.678 308.275C483.166 307.803 481.787 306.978 480.656 305.868C479.525 304.758 478.674 303.396 478.173 301.892C477.672 300.389 477.535 298.788 477.774 297.222C478.013 295.656 478.621 294.168 479.548 292.883C480.474 291.598 481.693 290.551 483.103 289.829C484.514 289.107 486.075 288.73 487.66 288.73C485.986 289.986 484.747 291.735 484.12 293.732C483.492 295.728 483.507 297.872 484.162 299.859C484.817 301.847 486.079 303.579 487.77 304.812C489.462 306.045 491.497 306.716 493.59 306.73H493.66Z" fill="#DDDDDD" stroke="#DDDDDD" stroke-linecap="round" stroke-linejoin="round"/>
<path d="M474.59 282.14C468.96 288.14 464.74 297.31 468.59 308.07" stroke="#DDDDDD" stroke-linecap="round" stroke-linejoin="round"/>
<path d="M504.87 299.86C505.58 286.11 492.95 273.86 476.87 280.38" stroke="#DDDDDD" stroke-linecap="round" stroke-linejoin="round"/>
<path d="M542.73 360.97C540.59 360.97 536.43 359.68 535.18 359.26L534.91 359.17C531.304 357.895 527.871 356.175 524.69 354.05C522.628 352.695 520.664 351.198 518.81 349.57C511.358 342.903 505.564 334.59 501.89 325.29C498.945 325.045 496.103 324.091 493.606 322.51C491.109 320.929 489.031 318.768 487.55 316.21C486.55 313.97 488.63 308.91 488.63 308.91C485.97 305.66 489.69 301.97 492.02 302.96C488.87 298.1 486.45 294.61 490.02 292.7C492.65 291.29 509.02 301.7 513.02 306.7C517.02 311.7 540.83 331.38 540.83 331.38C550.02 338.63 560.19 360.92 542.73 360.97Z" fill="#FEBD9D"/>
<path d="M540.77 331.36C547.77 337.78 548.92 343.24 548.92 343.24" stroke="#F4A789" stroke-width="0.75" stroke-linecap="round" stroke-linejoin="round"/>
<path d="M487.55 316.21C486.55 313.97 488.63 308.91 488.63 308.91C485.97 305.66 489.69 301.97 492.02 302.96C488.87 298.1 486.45 294.61 490.02 292.7C491.15 292.09 494.84 293.7 499.02 296.07" stroke="#F4A789" stroke-width="0.75" stroke-linecap="round" stroke-linejoin="round"/>
<path d="M509.25 202.86C509.25 202.86 508.41 213.18 509.07 215.52C509.07 215.52 500.89 221.17 497.67 219.82C497.544 219.767 497.426 219.697 497.32 219.61C494.32 217.33 492.67 202.61 492.67 202.61C492.67 202.61 481.17 201.06 478.97 196.07C478.97 196.07 469.67 197.46 471.97 189.99C471.129 190.354 470.226 190.554 469.31 190.58C468.756 190.632 468.203 190.469 467.765 190.125C467.328 189.78 467.04 189.281 466.96 188.73C466.32 185.51 475.3 184.73 475.3 184.73C473.19 180.1 479.36 177.02 485.44 182.9C483.24 179.63 486.11 177.18 491.98 179.31C498.42 181.65 504.31 188 502.86 192.31C502.86 192.31 508.53 192.12 511.6 195.86C515.19 200.23 511.41 202.43 509.25 202.86Z" fill="#7F542D"/>
<path d="M497.32 219.64C494.32 217.36 492.67 202.64 492.67 202.64C492.67 202.64 481.17 201.09 478.97 196.1C478.97 196.1 469.67 197.49 471.97 190.02C471.129 190.384 470.226 190.584 469.31 190.61C470.768 189.698 472.408 189.116 474.114 188.903C475.821 188.691 477.553 188.853 479.19 189.38C487.03 192.2 491.1 193.28 493.41 191.32C495.72 189.36 501.41 191.87 499.22 197.74C497.03 203.61 503.33 198.44 504.49 205.58C505.3 210.66 500.25 216.65 497.32 219.64Z" fill="#3F474C"/>
<path d="M499.92 197.55C503.101 197.502 506.176 198.688 508.5 200.86" stroke="#BF8228" stroke-width="0.75" stroke-linecap="round" stroke-linejoin="round"/>
<path d="M500.34 200.47C503.45 202.78 504.61 207.19 504.57 210.05" stroke="#BF8228" stroke-width="0.75" stroke-linecap="round" stroke-linejoin="round"/>
<path d="M505.3 227.99C505.3 227.99 504.3 237.19 505.3 240.78C505.3 240.78 501.91 258.1 489.17 258.98C482.66 259.42 479.47 255.36 477.93 251.27C477.013 248.768 476.51 246.134 476.44 243.47C476.44 243.47 468.83 244.17 464.03 235.21C462.55 232.43 461.84 228.47 461.94 223.68C462.005 221.175 462.252 218.679 462.68 216.21C464.386 207.039 467.517 198.192 471.96 189.99C472.11 193.7 476.04 195.1 480.96 192.88C480.96 192.88 480.3 199.17 488.96 196.73C488.96 196.73 488.62 200.59 494.15 198.88C500.67 196.88 494.79 208.36 500.36 215.88C500.36 215.88 505.96 209.78 510.82 213.59C516.93 218.36 510.56 226.73 505.3 227.99Z" fill="#FEBD9D"/>
<path d="M502.12 219.7C504.12 216.9 508.76 214.92 510.99 218.92" stroke="#F4A789" stroke-width="0.75" stroke-linecap="round" stroke-linejoin="round"/>
<path d="M501.43 222.11C506.07 224.85 507.5 218.18 503.12 218.59" stroke="#F4A789" stroke-width="0.75" stroke-linecap="round" stroke-linejoin="round"/>
<path d="M470.39 225.77C472.118 226.265 473.967 226.108 475.587 225.331C477.207 224.553 478.486 223.208 479.18 221.55" stroke="#F4A789" stroke-width="0.75" stroke-linecap="round" stroke-linejoin="round"/>
<path d="M505.3 227.99C503.316 228.295 501.288 227.914 499.55 226.91" stroke="#F4A789" stroke-width="0.75" stroke-linecap="round" stroke-linejoin="round"/>
<path d="M489.879 227.345C493.065 226.182 495.075 223.671 494.368 221.736C493.662 219.801 490.507 219.174 487.322 220.337C484.136 221.499 482.126 224.011 482.833 225.946C483.539 227.881 486.694 228.507 489.879 227.345Z" fill="#F4A789"/>
<path d="M467.17 221.86C466.6 223.43 464.43 224.13 461.94 223.73C462.005 221.225 462.252 218.729 462.68 216.26C465.87 217.37 467.87 219.86 467.17 221.86Z" fill="#F4A789"/>
<path d="M467.79 216.95C466.966 217.195 466.11 217.32 465.25 217.32C463.522 217.326 461.829 216.833 460.373 215.902C458.917 214.971 457.76 213.641 457.04 212.07" stroke="#3F474C" stroke-linecap="round" stroke-linejoin="round"/>
<path d="M474.1 206.57C474.204 207.141 474.258 207.72 474.26 208.3C474.264 208.884 474.207 209.468 474.09 210.04" stroke="#3F474C" stroke-linecap="round" stroke-linejoin="round"/>
<path d="M468.18 210.48C468.97 210.48 469.61 209.84 469.61 209.05C469.61 208.26 468.97 207.62 468.18 207.62C467.39 207.62 466.75 208.26 466.75 209.05C466.75 209.84 467.39 210.48 468.18 210.48Z" fill="#3F474C"/>
<path d="M478.25 212.4C478.248 212.685 478.331 212.965 478.488 213.203C478.645 213.441 478.869 213.627 479.132 213.738C479.395 213.848 479.685 213.878 479.965 213.824C480.245 213.769 480.502 213.633 480.705 213.432C480.907 213.231 481.045 212.974 481.102 212.695C481.158 212.415 481.13 212.125 481.021 211.861C480.913 211.598 480.728 211.372 480.491 211.214C480.254 211.055 479.975 210.97 479.69 210.97C479.501 210.969 479.314 211.005 479.14 211.076C478.965 211.147 478.806 211.253 478.672 211.385C478.539 211.518 478.432 211.676 478.36 211.851C478.287 212.025 478.25 212.212 478.25 212.4Z" fill="#3F474C"/>
<path d="M478.25 207.62C476.55 208.8 475.12 209.83 473.93 210.74C470.29 213.51 468.84 215.21 468.56 216.68C468.35 217.81 468.84 218.82 469.56 220.06" stroke="#F4A789" stroke-width="0.75" stroke-linecap="round" stroke-linejoin="round"/>
<path d="M480.66 200.18C481.38 198.77 485.47 201.36 486.45 203.35C487.43 205.34 479.44 202.55 480.66 200.18Z" fill="#7F542D"/>
<path d="M468.91 198.1C467.91 199.15 474.31 200.53 475.08 198.9C475.85 197.27 470.6 196.39 468.91 198.1Z" fill="#7F542D"/>
<path d="M479.18 217.23C479.18 217.381 479.12 217.526 479.013 217.633C478.906 217.74 478.761 217.8 478.61 217.8C478.46 217.798 478.316 217.737 478.21 217.63C478.103 217.524 478.043 217.381 478.04 217.23C478.04 217.155 478.055 217.081 478.083 217.012C478.112 216.943 478.154 216.88 478.207 216.827C478.26 216.774 478.323 216.732 478.392 216.704C478.461 216.675 478.535 216.66 478.61 216.66C478.685 216.659 478.76 216.673 478.83 216.701C478.9 216.729 478.963 216.771 479.016 216.824C479.069 216.877 479.111 216.941 479.139 217.01C479.168 217.08 479.181 217.155 479.18 217.23Z" fill="#F4A789"/>
<path d="M465.87 215.68C465.87 215.793 465.836 215.904 465.773 215.998C465.71 216.092 465.62 216.165 465.516 216.208C465.411 216.25 465.296 216.261 465.185 216.238C465.074 216.216 464.973 216.16 464.893 216.08C464.814 215.999 464.761 215.896 464.74 215.785C464.719 215.674 464.732 215.559 464.776 215.455C464.821 215.351 464.896 215.263 464.991 215.201C465.086 215.14 465.197 215.108 465.31 215.11C465.384 215.11 465.458 215.125 465.527 215.154C465.595 215.182 465.657 215.225 465.71 215.278C465.762 215.331 465.803 215.394 465.83 215.463C465.858 215.532 465.871 215.606 465.87 215.68Z" fill="#F4A789"/>
<path d="M467.88 213.27C467.88 213.421 467.82 213.566 467.713 213.673C467.606 213.78 467.461 213.84 467.31 213.84C467.159 213.84 467.014 213.78 466.907 213.673C466.8 213.566 466.74 213.421 466.74 213.27C466.74 213.119 466.8 212.974 466.907 212.867C467.014 212.76 467.159 212.7 467.31 212.7C467.461 212.7 467.606 212.76 467.713 212.867C467.82 212.974 467.88 213.119 467.88 213.27Z" fill="#F4A789"/>
<path d="M481.81 217.23C482.125 217.23 482.38 216.975 482.38 216.66C482.38 216.345 482.125 216.09 481.81 216.09C481.495 216.09 481.24 216.345 481.24 216.66C481.24 216.975 481.495 217.23 481.81 217.23Z" fill="#F4A789"/>
<path d="M487.67 218.57C487.668 218.72 487.607 218.864 487.5 218.97C487.394 219.077 487.25 219.138 487.1 219.14C486.949 219.14 486.804 219.08 486.697 218.973C486.59 218.866 486.53 218.721 486.53 218.57C486.529 218.495 486.543 218.42 486.571 218.35C486.599 218.281 486.641 218.217 486.694 218.164C486.747 218.111 486.811 218.069 486.88 218.041C486.95 218.013 487.025 217.999 487.1 218C487.251 218 487.396 218.06 487.503 218.167C487.61 218.274 487.67 218.419 487.67 218.57Z" fill="#F4A789"/>
<path d="M484.98 219.09C484.98 219.165 484.965 219.238 484.936 219.307C484.908 219.375 484.865 219.438 484.812 219.49C484.759 219.542 484.696 219.583 484.627 219.61C484.558 219.638 484.484 219.651 484.41 219.65C484.297 219.65 484.186 219.616 484.092 219.553C483.998 219.49 483.925 219.401 483.882 219.296C483.84 219.191 483.829 219.076 483.852 218.965C483.875 218.854 483.93 218.753 484.011 218.674C484.091 218.594 484.194 218.541 484.305 218.52C484.416 218.499 484.531 218.512 484.635 218.556C484.739 218.601 484.827 218.676 484.889 218.771C484.95 218.866 484.982 218.977 484.98 219.09Z" fill="#F4A789"/>
<path d="M481.81 220.06C481.821 220.141 481.814 220.223 481.791 220.3C481.767 220.378 481.727 220.45 481.674 220.511C481.62 220.572 481.554 220.621 481.481 220.655C481.407 220.688 481.326 220.705 481.245 220.705C481.164 220.705 481.084 220.688 481.01 220.655C480.936 220.621 480.87 220.572 480.816 220.511C480.763 220.45 480.723 220.378 480.699 220.3C480.676 220.223 480.669 220.141 480.68 220.06C480.669 219.98 480.676 219.898 480.699 219.82C480.723 219.742 480.763 219.67 480.816 219.609C480.87 219.548 480.936 219.499 481.01 219.466C481.084 219.432 481.164 219.415 481.245 219.415C481.326 219.415 481.407 219.432 481.481 219.466C481.554 219.499 481.62 219.548 481.674 219.609C481.727 219.67 481.767 219.742 481.791 219.82C481.814 219.898 481.821 219.98 481.81 220.06Z" fill="#F4A789"/>
<path d="M456.22 208.3C456.202 206.51 456.717 204.756 457.701 203.26C458.685 201.765 460.092 200.597 461.743 199.906C463.394 199.215 465.214 199.031 466.97 199.379C468.726 199.728 470.338 200.591 471.6 201.86" stroke="#3F474C" stroke-linecap="round" stroke-linejoin="round"/>
<path d="M483.28 224.13C488.262 224.13 492.3 220.092 492.3 215.11C492.3 210.129 488.262 206.09 483.28 206.09C478.298 206.09 474.26 210.129 474.26 215.11C474.26 220.092 478.298 224.13 483.28 224.13Z" stroke="#3F474C" stroke-linecap="round" stroke-linejoin="round"/>
<path d="M492.3 215.11L500.34 215.84" stroke="#3F474C" stroke-linecap="round" stroke-linejoin="round"/>
<path d="M488.14 238.96C488.14 238.96 487.88 248.96 477.93 251.27C477.013 248.768 476.51 246.134 476.44 243.47C479.71 243.32 486.31 241.01 488.14 238.96Z" fill="#F4A789"/>
<path d="M488.44 185.06C493.55 186.16 498.65 189.99 498.65 193.46" stroke="#BF8228" stroke-width="0.75" stroke-linecap="round" stroke-linejoin="round"/>
<path d="M479.18 187.1C485.75 187.96 494.24 191.26 497.18 195.43" stroke="#BF8228" stroke-width="0.75" stroke-linecap="round" stroke-linejoin="round"/>
<path d="M437.29 333.86C436.69 345.18 420.61 362.11 403.85 326.77C395.13 308.39 394.14 284.18 391.05 264.85C389.894 259.141 387.906 253.632 385.15 248.5C381.89 242.85 373.61 230.56 376.24 229.68C378.87 228.8 386.53 237.68 386.53 237.68C386.53 237.68 377.62 219.43 381.01 218.63C384.4 217.83 392.43 234.11 392.43 234.11C389.17 219.81 388.28 212.67 391.22 212.41C393.71 212.19 397.51 226.73 399.8 232.94C400.64 235.22 401.91 234.32 401.8 232.43C401.69 230.54 398.59 212.32 403.8 216.72C407.4 219.78 410.32 242.24 410.32 242.24C410.32 242.24 412.5 240.66 414.32 235.53C415.83 231.33 420.22 232.1 419.32 240.11C418.42 248.12 412.17 259.11 412.17 259.11C411.92 264.63 417.56 281.11 419.94 285.96C422.32 290.81 431.5 311.58 431.5 311.58C431.5 311.58 437.91 322.06 437.29 333.86Z" fill="#FEBD9D"/>
<path d="M381.78 242.86C378.26 237.06 374.31 230.27 376.24 229.62C378.88 228.74 386.53 237.62 386.53 237.62C386.53 237.62 377.62 219.37 381.01 218.57C384.4 217.77 392.43 234.05 392.43 234.05C389.17 219.75 388.28 212.61 391.22 212.35C393.71 212.13 397.51 226.67 399.8 232.88C400.64 235.16 401.91 234.26 401.8 232.37C401.69 230.48 398.59 212.26 403.8 216.66C407.4 219.72 410.32 242.18 410.32 242.18C410.32 242.18 412.5 240.6 414.32 235.47C415.83 231.27 420.22 232.04 419.32 240.05C418.87 244.18 416.97 249.1 415.25 252.9" stroke="#F4A789" stroke-width="0.75" stroke-linecap="round" stroke-linejoin="round"/>
<path d="M389.5 237.48C392.8 235.1 398.75 234.84 398.75 234.84" stroke="#F4A789" stroke-width="0.75" stroke-linecap="round" stroke-linejoin="round"/>
<path d="M410.24 242.18C410.24 242.18 403.43 241.18 401.39 247.94" stroke="#F4A789" stroke-width="0.75" stroke-linecap="round" stroke-linejoin="round"/>
<path d="M437.63 328.86C436.181 322.906 434.127 317.116 431.5 311.58" stroke="#F4A789" stroke-width="0.75" stroke-linecap="round" stroke-linejoin="round"/>
<path d="M411.32 236.16C411.32 236.16 418.1 240.16 418.1 239.9C418.1 239.64 427.38 222.77 427.38 222.77L418.27 218.57L411.32 236.16Z" stroke="#DDDDDD" stroke-linecap="round" stroke-linejoin="round"/>
<path d="M398.77 223.43L410.24 220.61L405.81 196.28L393.6 198.93L398.77 223.43Z" stroke="#DDDDDD" stroke-linecap="round" stroke-linejoin="round"/>
<path d="M378.13 197.32L390.81 194.83L395.91 217.66L385.51 219.42L378.13 197.32Z" stroke="#DDDDDD" stroke-linecap="round" stroke-linejoin="round"/>
<path d="M358.96 220.6L369.56 212.35L381.39 231L372.89 237.62L358.96 220.6Z" stroke="#DDDDDD" stroke-linecap="round" stroke-linejoin="round"/>
<path d="M273.94 366.23C267.82 377.78 262.12 404.01 259.81 415.83C259.81 415.83 279.81 423.71 311.57 422.62C343.33 421.53 349.75 415.96 349.75 415.96C349.75 415.96 353.56 378.33 343.5 362.43L273.94 366.23Z" fill="#A3D49D"/>
<mask id="mask1_601_3600" style="mask-type:alpha" maskUnits="userSpaceOnUse" x="259" y="362" width="92" height="61">
<path d="M273.94 366.23C267.82 377.78 262.12 404.01 259.81 415.83C259.81 415.83 279.81 423.71 311.57 422.62C343.33 421.53 349.75 415.96 349.75 415.96C349.75 415.96 353.56 378.33 343.5 362.43L273.94 366.23Z" fill="#A3D49D"/>
</mask>
<g mask="url(#mask1_601_3600)">
<path d="M350.56 371.07H345.41V376.22H350.56V371.07Z" stroke="white" stroke-width="0.75" stroke-linecap="round" stroke-linejoin="round"/>
<path d="M325.48 371.07H320.33V376.22H325.48V371.07Z" stroke="white" stroke-width="0.75" stroke-linecap="round" stroke-linejoin="round"/>
<path d="M300.4 371.07H295.25V376.22H300.4V371.07Z" stroke="white" stroke-width="0.75" stroke-linecap="round" stroke-linejoin="round"/>
<path d="M275.31 371.07H270.16V376.22H275.31V371.07Z" stroke="white" stroke-width="0.75" stroke-linecap="round" stroke-linejoin="round"/>
<path d="M350.56 402.9H345.41V408.05H350.56V402.9Z" stroke="white" stroke-width="0.75" stroke-linecap="round" stroke-linejoin="round"/>
<path d="M325.48 402.9H320.33V408.05H325.48V402.9Z" stroke="white" stroke-width="0.75" stroke-linecap="round" stroke-linejoin="round"/>
<path d="M300.4 402.9H295.25V408.05H300.4V402.9Z" stroke="white" stroke-width="0.75" stroke-linecap="round" stroke-linejoin="round"/>
<path d="M275.31 402.9H270.16V408.05H275.31V402.9Z" stroke="white" stroke-width="0.75" stroke-linecap="round" stroke-linejoin="round"/>
<path d="M263.8 352.58H253.51V362.87H263.8V352.58Z" stroke="white" stroke-width="0.75" stroke-linecap="round" stroke-linejoin="round"/>
<path d="M289.5 352.58H279.21V362.87H289.5V352.58Z" stroke="white" stroke-width="0.75" stroke-linecap="round" stroke-linejoin="round"/>
<path d="M315.2 352.58H304.91V362.87H315.2V352.58Z" stroke="white" stroke-width="0.75" stroke-linecap="round" stroke-linejoin="round"/>
<path d="M340.9 352.58H330.61V362.87H340.9V352.58Z" stroke="white" stroke-width="0.75" stroke-linecap="round" stroke-linejoin="round"/>
<path d="M263.8 384.41H253.51V394.7H263.8V384.41Z" stroke="white" stroke-width="0.75" stroke-linecap="round" stroke-linejoin="round"/>
<path d="M289.5 384.41H279.21V394.7H289.5V384.41Z" stroke="white" stroke-width="0.75" stroke-linecap="round" stroke-linejoin="round"/>
<path d="M315.2 384.41H304.91V394.7H315.2V384.41Z" stroke="white" stroke-width="0.75" stroke-linecap="round" stroke-linejoin="round"/>
<path d="M340.9 384.41H330.61V394.7H340.9V384.41Z" stroke="white" stroke-width="0.75" stroke-linecap="round" stroke-linejoin="round"/>
<path d="M263.8 416.24H253.51V426.53H263.8V416.24Z" stroke="white" stroke-width="0.75" stroke-linecap="round" stroke-linejoin="round"/>
<path d="M289.5 416.24H279.21V426.53H289.5V416.24Z" stroke="white" stroke-width="0.75" stroke-linecap="round" stroke-linejoin="round"/>
<path d="M315.2 416.24H304.91V426.53H315.2V416.24Z" stroke="white" stroke-width="0.75" stroke-linecap="round" stroke-linejoin="round"/>
<path d="M340.9 416.24H330.61V426.53H340.9V416.24Z" stroke="white" stroke-width="0.75" stroke-linecap="round" stroke-linejoin="round"/>
</g>
<path d="M282.29 357.86C282.29 357.86 269.7 368.32 269.04 369.53C260.79 382.7 236.35 393.23 224.76 379.3C209.98 361.52 241.68 346.86 241.68 346.86C241.68 346.86 244.68 340.79 244.78 340.38L277.7 346.86L282.29 357.86Z" fill="#FEBD9D"/>
<path d="M356.88 303.63C356.01 310.14 350.48 349.76 347.73 358.81C344.98 367.86 338.79 370.62 335.26 370.62C333.13 370.62 324.69 370.9 314.66 371.27C308.08 371.5 300.81 371.79 294.21 372.05C277.54 372.71 269.04 369.52 269.04 369.52L269.42 368.81L276.66 355.49C271.481 356.548 266.152 356.64 260.94 355.76C259.59 355.525 258.255 355.215 256.94 354.83C251.01 353.11 246.54 348.1 243.84 344.19C242.705 342.563 241.702 340.847 240.84 339.06C245.278 328.405 250.347 318.023 256.02 307.97C260.55 300.06 264.11 295.03 265.78 293.36C269.09 290.06 279.13 287.08 287.88 285.28L303.74 281C303.74 281 314.23 254.85 314.23 254.52C314.23 254.19 347 245.59 347 245.59C353.13 258.076 356.755 271.641 357.67 285.52C358.019 291.568 357.755 297.636 356.88 303.63Z" fill="#6DB5B2"/>
<path d="M314.66 371.27C308.08 371.5 300.81 371.79 294.21 372.05C277.54 372.71 269.04 369.52 269.04 369.52L269.42 368.81L276.66 355.49C281.686 345.472 286.11 335.164 289.91 324.62C289.99 324.38 290.09 324.15 290.17 323.92C291.576 326.566 292.266 329.535 292.17 332.53C291.96 340.33 277.29 360.85 288.45 365.45C299.24 369.86 307.59 362.36 314.66 371.27Z" fill="#6DB5B2"/>
<path d="M357.62 285.52C352.44 289.94 346.51 296.36 345.18 303.45C342.69 316.63 324.73 329.23 306.26 314.01C290.87 301.33 278.84 297.9 255.97 308.01C260.5 300.1 264.06 295.07 265.73 293.4C269.04 290.1 279.08 287.12 287.83 285.32L303.69 281.04C303.69 281.04 306.9 225.36 306.9 225.04C306.9 224.72 342.97 232.86 342.97 232.86C350.5 248.48 357 275.07 357.62 285.52Z" fill="#6DB5B2"/>
<path d="M328.69 281C331.193 280.767 333.659 280.226 336.03 279.39" stroke="#8FC6C4" stroke-width="0.75" stroke-linecap="round" stroke-linejoin="round"/>
<path d="M276.66 355.49C281.686 345.472 286.11 335.164 289.91 324.62C289.99 324.38 290.09 324.15 290.17 323.92C290.837 322.033 291.503 320.107 292.17 318.14" stroke="#8FC6C4" stroke-width="0.75" stroke-linecap="round" stroke-linejoin="round"/>
<path d="M224.78 379.32C213.83 367.87 209.85 348.21 207.42 338.81C204.42 327.34 198.79 295.1 198.11 290.24C197.43 285.38 200.82 270.14 200.82 270.14C204.09 268.93 210.04 271.25 215.82 274.31L214.45 280.19C214.206 283.896 213.327 287.532 211.85 290.94C213.582 292.262 215.028 293.922 216.1 295.82L227.37 292.82C225.02 298.99 222.37 306.5 222.43 308.82C222.56 313.04 226.34 322.69 230.52 328.89C234.7 335.09 241.68 346.86 241.68 346.86C262.99 369.98 248.08 398.17 224.78 379.32Z" fill="#FEBD9D"/>
<path d="M200.79 270.11C200.79 270.11 197.42 285.36 198.09 290.21" stroke="#F4A789" stroke-width="0.75" stroke-linecap="round" stroke-linejoin="round"/>
<path d="M203.9 248.45C203.9 248.45 208.12 275.76 209.57 285.38C197.77 286.75 192.89 269.11 201.86 262.94C193.75 257.69 193.53 242.01 203.72 240.05C201.29 231.98 213.72 221.8 222.54 227.56C225.4 217.12 241.16 216.67 246.69 225.37L207.13 235.86L207.91 247.19C206.5 247.62 205.13 248.04 203.9 248.45Z" fill="#DDDDDD"/>
<path d="M210.76 288.54L211.34 297.03L255.98 285.28C255.98 285.28 258.34 265.52 250.78 227.34C250.6 226.34 250.41 225.43 250.2 224.45L246.69 225.37L243.55 226.21L207.13 235.86L207.91 247.19" fill="#DDDDDD"/>
<path d="M210.76 288.54L211.34 297.03L255.98 285.28C255.98 285.28 258.34 265.52 250.78 227.34C250.6 226.34 250.41 225.43 250.2 224.45L246.69 225.37L243.55 226.21L207.13 235.86L207.91 247.19" stroke="#DDDDDD" stroke-linecap="round" stroke-linejoin="round"/>
<path d="M242.88 277.64C242.88 277.64 210.04 289.19 210.04 288.64C210.04 288.55 209.85 287.33 209.57 285.36C208.12 275.74 203.9 248.43 203.9 248.43C205.13 248.02 206.47 247.6 207.9 247.16C219.55 243.63 236.55 239.36 236.55 239.36L242.88 277.64Z" fill="#DDDDDD"/>
<path d="M211.8 255.88L229.36 251.55" stroke="white" stroke-linecap="round" stroke-linejoin="round"/>
<path d="M213.03 262.85L233.22 258.28" stroke="white" stroke-linecap="round" stroke-linejoin="round"/>
<path d="M216.89 269.78L229.36 266.78" stroke="white" stroke-linecap="round" stroke-linejoin="round"/>
<path d="M200.1 290.75C203.36 283.75 210.72 276.01 213.5 277.95C216.28 279.89 211.8 290.95 211.8 290.95C215.385 293.757 217.729 297.856 218.33 302.37C218.33 302.37 202.87 308.74 200.1 290.75Z" fill="#FEBD9D"/>
<path d="M200.1 290.75C203.36 283.75 210.72 276.01 213.5 277.95C216.28 279.89 211.8 290.95 211.8 290.95C215.385 293.757 217.729 297.856 218.33 302.37" stroke="#F4A789" stroke-width="0.75" stroke-linecap="round" stroke-linejoin="round"/>
<path d="M286.17 154.1C282.82 143.33 280.75 135.91 278.77 130.9C276.02 123.9 279.33 119.83 284.24 130.37C286.41 135.04 289.01 140.77 289.01 140.77C289.01 140.77 297.23 139.37 301.01 142.46C304.79 145.55 307.59 152.77 308.73 164.88C308.73 164.88 317.1 181.94 319.94 188.19C322.78 194.44 336.35 221.91 342.94 232.88C349.03 250.22 312.22 264.03 306.87 225C306.87 225 300.45 205.34 298.99 198C297.53 190.66 291.51 170.3 291.51 170.3C291.51 170.3 281.36 159.9 280.14 158.3C278.92 156.7 274.14 144.41 276.14 143.59C278.14 142.77 281.34 145.22 283.78 152.86L286.17 154.1Z" fill="#FEBD9D"/>
<path d="M280.17 158.3C278.96 156.67 274.17 144.41 276.17 143.59C278.17 142.77 281.37 145.22 283.81 152.86L286.15 154.1C282.8 143.33 280.73 135.91 278.75 130.9C276 123.9 279.31 119.83 284.22 130.37C286.39 135.04 288.99 140.77 288.99 140.77C288.99 140.77 294.89 139.77 298.99 141.33" stroke="#F4A789" stroke-width="0.75" stroke-linecap="round" stroke-linejoin="round"/>
<path d="M289.01 140.77L291.08 145.54" stroke="#F4A789" stroke-width="0.75" stroke-linecap="round" stroke-linejoin="round"/>
<path d="M294.08 140.48L296.17 145.1" stroke="#F4A789" stroke-width="0.75" stroke-linecap="round" stroke-linejoin="round"/>
<path d="M298.82 141.23L300.91 145.86" stroke="#F4A789" stroke-width="0.75" stroke-linecap="round" stroke-linejoin="round"/>
<path d="M335.43 231.23C342.13 229.13 347.43 230.09 349.32 238.07C351.21 246.05 342.41 253.07 333.43 251.26L335.43 231.23Z" fill="#BF8228"/>
<path d="M340.21 239.38C340.079 241.738 339.621 244.067 338.85 246.3C336.815 251.845 333.305 256.731 328.7 260.43L324.7 267.11C324.7 267.11 294.85 273.22 295.28 226.47C292.46 223.03 293.36 215.47 301.58 209.47C313.84 200.59 334.15 211.03 331.03 225.22C331 225.22 340.93 224.97 340.21 239.38Z" fill="#BF8228"/>
<path d="M297.82 224.36C296.07 218.36 301.63 211.56 303.56 210.59" stroke="#7F542D" stroke-width="0.75" stroke-linecap="round" stroke-linejoin="round"/>
<path d="M338.85 246.3C336.815 251.845 333.305 256.731 328.7 260.43L324.7 267.11C324.7 267.11 294.85 273.22 295.28 226.47L305.28 212.71C305.04 213.29 301.03 232.32 308.28 249.19C314.34 263.37 333.65 253.99 338.85 246.3Z" fill="#BF8228"/>
<path d="M328.69 260.45C326.874 265.998 325.966 271.803 326 277.64C316.54 282.45 306.95 283.56 297.17 279.41C297.17 279.41 297.7 276.5 298.06 273.33C298.32 271.371 298.424 269.395 298.37 267.42C290.15 267.53 284.61 261.14 284.42 251.75C284.382 248.639 284.831 245.542 285.75 242.57C286.205 241.054 286.752 239.568 287.39 238.12C287.39 238.12 285.46 235.82 285.73 234.07C286 232.32 291.53 229.64 291.53 229.64C296.41 220.14 305.27 212.64 305.27 212.64C305.27 212.64 298.59 220.8 300.37 233.96C300.37 233.96 307.44 229.18 308.93 237.52C310.19 244.57 304.61 248.12 302.59 249.15C302.375 249.265 302.155 249.368 301.93 249.46C301.93 249.46 303.69 261.98 315.33 263.7C317.66 264.119 320.053 264.046 322.353 263.486C324.654 262.926 326.812 261.892 328.69 260.45Z" fill="#FEBD9D"/>
<path d="M295.83 230.42C296.62 230.42 297.26 229.78 297.26 228.99C297.26 228.2 296.62 227.56 295.83 227.56C295.04 227.56 294.4 228.2 294.4 228.99C294.4 229.78 295.04 230.42 295.83 230.42Z" fill="#3F474C"/>
<path d="M319.76 225.6C329.17 222.6 331.76 240.05 328.15 246.6C325.07 252.17 311.62 251.15 310.44 241.2C309.26 231.25 317.6 226.29 319.76 225.6Z" fill="#BF8228"/>
<path d="M318.58 230.02C320.37 227.02 323.24 227.9 324.74 230.13C326.24 232.36 327.65 238.79 322.68 239.33C316.58 239.99 316.56 233.4 318.58 230.02Z" fill="#BF8228"/>
<path d="M298.1 240.05C300.59 236.79 304.23 236.61 305.55 238.42" stroke="#F4A789" stroke-width="0.75" stroke-linecap="round" stroke-linejoin="round"/>
<path d="M298.55 239.51C303.92 238.19 303.2 247.12 297.04 243.98" stroke="#F4A789" stroke-width="0.75" stroke-linecap="round" stroke-linejoin="round"/>
<path d="M302.6 249.19C300.67 249.863 298.59 249.974 296.6 249.51" stroke="#F4A789" stroke-width="0.75" stroke-linecap="round" stroke-linejoin="round"/>
<path d="M318.07 226.4C318.07 226.4 309.37 237.19 316 242.56C322.63 247.93 327.32 240.91 327.32 240.91" stroke="#7F542D" stroke-width="0.75" stroke-linecap="round" stroke-linejoin="round"/>
<path d="M312.95 227.56C310.313 223.714 308.642 219.289 308.08 214.66" stroke="#7F542D" stroke-width="0.75" stroke-linecap="round" stroke-linejoin="round"/>
<path d="M298.17 221.48C299.41 219.8 302.94 223.21 302.94 226.06C302.94 227.5 296.24 224.1 298.17 221.48Z" fill="#BF8228"/>
<path d="M305.28 212.68C305.28 212.68 320.81 204.17 329.15 226.4" stroke="#7F542D" stroke-width="0.75" stroke-linecap="round" stroke-linejoin="round"/>
<path d="M310.86 214.18C314.31 216.36 319.51 223.18 319.51 223.18" stroke="#7F542D" stroke-width="0.75" stroke-linecap="round" stroke-linejoin="round"/>
<path d="M319.8 228.65C319.3 231.03 316.89 237.91 325.38 237.27" stroke="#7F542D" stroke-width="0.75" stroke-linecap="round" stroke-linejoin="round"/>
<path d="M339.19 245.24C339.19 245.24 348.26 241.01 345.98 234.06" stroke="#7F542D" stroke-width="0.75" stroke-linecap="round" stroke-linejoin="round"/>
<path d="M340.18 236.15C341.69 235.68 343.34 232.58 343.34 232.58" stroke="#7F542D" stroke-width="0.75" stroke-linecap="round" stroke-linejoin="round"/>
<path d="M306.55 246.17C308.91 248.17 313.99 258.56 332.29 252.28" stroke="#7F542D" stroke-width="0.75" stroke-linecap="round" stroke-linejoin="round"/>
<path d="M327.68 229.53C337.57 231.65 335.9 242.02 333.43 246.17" stroke="#7F542D" stroke-width="0.75" stroke-linecap="round" stroke-linejoin="round"/>
<path d="M288.83 242.05C289.24 243.74 291.36 244.68 293.57 244.14C295.78 243.6 297.22 241.8 296.81 240.14C296.4 238.48 294.27 237.51 292.07 238.05C289.87 238.59 288.42 240.36 288.83 242.05Z" fill="#F4A789"/>
<path d="M309.67 257.77C315.67 261.47 326.33 260.84 333 256.27" stroke="#7F542D" stroke-width="0.75" stroke-linecap="round" stroke-linejoin="round"/>
<path d="M305.55 215.24C304.55 220.89 305.87 229.48 307.3 231.66" stroke="#7F542D" stroke-width="0.75" stroke-linecap="round" stroke-linejoin="round"/>
<path d="M308.08 243.94C311.62 247.56 320.24 251.41 327.8 247.16" stroke="#7F542D" stroke-width="0.75" stroke-linecap="round" stroke-linejoin="round"/>
<path d="M290.79 244.96C290.137 246.011 289.22 246.872 288.13 247.458C287.041 248.044 285.817 248.334 284.58 248.3C284.722 246.953 284.953 245.617 285.27 244.3C285.36 243.94 285.46 243.56 285.57 243.18C287.041 244.378 288.893 245.009 290.79 244.96Z" fill="white" stroke="#F4A789" stroke-width="0.75" stroke-linecap="round" stroke-linejoin="round"/>
<path d="M287.4 238.12C287.4 238.12 285.29 235.43 285.74 234.07C286.19 232.71 289.67 230.35 291.54 229.64" stroke="#F4A789" stroke-width="0.75" stroke-linecap="round" stroke-linejoin="round"/>
<path d="M305.5 265.13C305.466 267.173 304.687 269.134 303.31 270.644C301.933 272.153 300.052 273.109 298.02 273.33C298.28 271.371 298.384 269.395 298.33 267.42C301.82 267.94 305.5 265.13 305.5 265.13Z" fill="#F4A789"/>
<path d="M127.69 79.5801C127.123 79.5447 126.558 79.4745 126 79.3701L104.4 108.37L103.77 108.22L88.6998 104.48C83.9998 106.48 81.9798 101.9 83.4398 98.5401C82.8798 99.1201 79.2198 98.7601 80.8698 94.9601C77.3998 95.8601 74.3798 88.1401 79.1998 85.7901C75.0598 86.2701 76.6898 77.0801 81.0898 78.7901C77.5998 76.5101 82.6998 66.5601 88.6998 69.8601C86.4698 67.5801 89.8298 62.3801 93.6998 64.0301C91.0998 59.7801 100.7 52.4301 106.05 59.0901C106.45 56.0901 110.36 55.0401 112.05 58.3001C111.92 54.5101 118.99 53.5901 118.46 59.7401C120.79 56.7401 126.54 61.6501 123.61 65.6201C126.93 61.8101 134.48 67.1901 130.38 71.7101C135.01 73.3801 134.6 79.9501 127.69 79.5801Z" fill="#3F474C"/>
<path d="M127.69 79.5801C127.123 79.5447 126.558 79.4745 126 79.3701L104.4 108.37L103.77 108.22L100.32 102.45C90.5698 103.19 87.8798 96.5301 91.7298 91.3901C88.7298 89.9501 89.8198 79.8001 96.0298 80.3901C94.3398 77.0401 98.5398 67.6701 107.53 71.9801C108.53 68.1101 114.53 66.5001 118.26 71.9801C119.81 68.6001 129.22 68.4401 127.69 79.5801Z" fill="#3F474C"/>
<path d="M119.17 126.07C117.78 140.07 96.7399 137.17 97.6499 127.81C97.6677 123.248 97.2828 118.694 96.5 114.2C91.5 113.95 88.58 111.89 88.75 106.61C88.92 101.33 95.35 97.1301 102.28 101.83C102.953 100.102 103.169 98.2305 102.908 96.3948C102.647 94.5591 101.918 92.8217 100.79 91.3501C96.8999 85.8601 102.59 78.8601 107.87 78.8601C113.15 78.8601 123.87 79.1101 123.71 73.2501C127.717 79.972 130.818 87.1947 132.93 94.7301C133.02 95.0401 133.1 95.3501 133.18 95.6601C133.64 97.4401 134.04 99.2801 134.35 101.14C134.41 101.48 134.46 101.83 134.52 102.14C134.58 102.45 134.6 102.63 134.63 102.88C136.86 117.98 133.95 127.26 119.17 126.07Z" fill="#B25E47"/>
<path d="M115.4 92.8601C115.398 93.1457 115.481 93.4255 115.638 93.6638C115.796 93.9022 116.021 94.0883 116.284 94.1985C116.548 94.3087 116.838 94.3381 117.118 94.2828C117.399 94.2276 117.656 94.0903 117.858 93.8883C118.06 93.6863 118.197 93.4288 118.253 93.1485C118.308 92.8683 118.279 92.5779 118.168 92.3144C118.058 92.0508 117.872 91.826 117.634 91.6686C117.395 91.5111 117.116 91.4281 116.83 91.4301C116.451 91.4327 116.089 91.5842 115.822 91.8518C115.554 92.1194 115.403 92.4816 115.4 92.8601Z" fill="#3F474C"/>
<path d="M125.05 89.9601C125.033 90.1586 125.058 90.3584 125.123 90.5468C125.187 90.7353 125.29 90.9083 125.425 91.0549C125.56 91.2015 125.724 91.3185 125.906 91.3986C126.089 91.4786 126.286 91.52 126.485 91.52C126.684 91.52 126.881 91.4786 127.064 91.3986C127.246 91.3185 127.41 91.2015 127.545 91.0549C127.68 90.9083 127.783 90.7353 127.847 90.5468C127.912 90.3584 127.937 90.1586 127.92 89.9601C127.89 89.6002 127.726 89.2647 127.46 89.0202C127.194 88.7757 126.846 88.64 126.485 88.64C126.124 88.64 125.776 88.7757 125.51 89.0202C125.244 89.2647 125.08 89.6002 125.05 89.9601Z" fill="#3F474C"/>
<path d="M100.32 109.86C96.2197 112.03 94.0497 106.58 98.9697 105.76C98.3918 105.363 97.7368 105.091 97.0472 104.964C96.3576 104.836 95.6489 104.855 94.967 105.019C94.2852 105.183 93.6454 105.489 93.0894 105.916C92.5334 106.344 92.0736 106.883 91.7397 107.5" stroke="#914839" stroke-width="0.75" stroke-linecap="round" stroke-linejoin="round"/>
<path d="M121.68 82.3501C121.28 85.7001 121.2 89.4401 121.68 89.9601C122.16 90.4801 128.14 94.5701 128.9 95.0801C129.66 95.5901 128.1 97.8101 125.69 98.6601" stroke="#914839" stroke-width="0.75" stroke-linecap="round" stroke-linejoin="round"/>
<path d="M120.42 113.63C123.25 115.34 129.83 108.45 127.28 105.75C122.92 101.14 118.31 112.35 120.42 113.63Z" fill="white" stroke="#914839" stroke-width="0.75" stroke-linecap="round" stroke-linejoin="round"/>
<path d="M107.88 85.0501C111.03 79.9801 116.12 78.7601 116.75 80.6501C117.95 84.2401 105.3 89.2001 107.88 85.0501Z" fill="#3F474C"/>
<path d="M123.87 84.2701C123.87 82.3301 128.87 84.6001 129.41 86.0301C129.95 87.4601 123.83 86.9701 123.87 84.2701Z" fill="#3F474C"/>
<path d="M119.55 102.94C119.05 105.05 116.12 106.17 113.01 105.44C109.9 104.71 107.77 102.44 108.26 100.29C108.75 98.1401 111.69 97.0601 114.8 97.7901C117.91 98.5201 120.04 100.86 119.55 102.94Z" fill="#914839"/>
<path d="M134.5 102.13C133.864 102.258 133.205 102.215 132.592 102.004C131.979 101.793 131.432 101.422 131.01 100.93C129.78 99.2801 130.66 96.5701 132.91 94.6801C133 94.9901 133.08 95.3001 133.16 95.6101C133.62 97.3901 134.02 99.2301 134.33 101.09C134.41 101.43 134.5 101.78 134.5 102.13Z" fill="#914839"/>
<path d="M152.81 372.13H152.86C152.86 372.13 157.03 363.3 150.51 358.81C145.62 355.44 134.81 356.1 133.05 352.98C132.59 352.17 136.82 344.68 142.5 335.35C150.04 323.02 160.14 307.48 165.36 299.99C174.5 286.86 179.58 272.6 163.81 255.86C154.69 248.13 141.24 257.61 133.13 279.36C130.21 287.21 119.59 315.14 115.07 326.96C111.07 337.43 108.31 344.26 107.12 346.25C106.93 346.58 106.7 346.98 106.47 347.41C103.69 352.64 98.4701 365.13 101.01 370.53" fill="#B25E47"/>
<path d="M152.86 372.12C152.86 372.12 104.69 376.19 101.01 370.55C97.48 365.14 104.62 350.55 107.12 346.27C108.31 344.27 111.04 337.45 115.07 326.98C123.75 325.58 134.35 326.3 142.5 335.34C136.82 344.67 132.59 352.16 133.05 352.97C134.81 356.09 145.62 355.43 150.51 358.8C157.03 363.29 152.86 372.12 152.86 372.12Z" fill="#3F474C"/>
<path d="M133.86 353.86C130.16 352.331 126.574 350.54 123.13 348.5C118.64 345.77 112.27 345.58 106.5 347.4C106.72 346.98 106.94 346.62 107.12 346.31C108.31 344.31 111.04 337.49 115.07 327.02C123.75 325.62 134.35 326.34 142.5 335.38C136.82 344.71 132.59 352.2 133.05 353.01C133.252 353.351 133.529 353.642 133.86 353.86Z" fill="white"/>
<path d="M135.8 357.54C141.09 350.19 149.31 346.54 149.42 350.92C149.53 355.3 137.16 359.61 137.16 359.61" stroke="#3F474C" stroke-width="0.75" stroke-linecap="round" stroke-linejoin="round"/>
<path d="M135.8 355.48C135.37 349.33 142.48 340 145.59 341.06C149.85 342.52 140.37 353.06 134.46 357.85" stroke="#3F474C" stroke-width="0.75" stroke-linecap="round" stroke-linejoin="round"/>
<path d="M220.23 57.8001C222.81 48.8001 223.52 38.7001 226.23 38.3201C228.94 37.9401 227.96 45.6501 227.96 45.6501L230.55 48.7201L221.44 59.8601L220.23 57.8001Z" fill="#B25E47"/>
<path d="M221.8 51.3701C223.26 44.5601 224.17 38.6101 226.26 38.3701C229.01 37.9901 227.99 45.7001 227.99 45.7001" stroke="#914839" stroke-width="0.75" stroke-linecap="round" stroke-linejoin="round"/>
<path d="M255.65 53.5201C253.748 54.9594 251.743 56.2563 249.65 57.4C249.65 57.4 244.01 69.5701 236.9 71.8601C236.9 71.8601 231.1 89.1701 223.9 106.02C216.7 122.87 197.67 139.22 197.67 139.22C171.56 155.12 150.13 123.86 181.37 104.86C184.591 102.751 187.605 100.34 190.37 97.6601C207.71 80.5101 235.07 33.9901 237.8 29.7901C240.53 25.5901 243.09 26.5101 240.9 32.8901C238.79 39.0801 237.18 43.8901 237.09 44.2001C237.52 43.7601 248.69 32.5501 251.09 30.5201C253.33 28.6601 256.75 30.3401 252.73 36.3601C256.73 31.1601 260.56 31.7401 256.73 39.1001C254.36 43.6501 248.84 50.7001 248.5 51.1001C249.03 50.8301 257.96 46.1601 260.5 46.6901C263.04 47.2201 259.61 50.6601 255.65 53.5201Z" fill="#B25E47"/>
<path d="M226.12 48.6101C232.26 38.8901 236.76 31.3401 237.79 29.7601C240.53 25.5701 243.08 26.4801 240.89 32.8601C238.78 39.0501 237.17 43.8601 237.08 44.1701C237.51 43.7301 248.68 32.5201 251.08 30.4901C253.32 28.6301 256.74 30.3101 252.72 36.3301C256.72 31.1301 260.55 31.7101 256.72 39.0701C254.35 43.6201 248.83 50.6701 248.49 51.0701C249.02 50.8001 257.95 46.1301 260.49 46.6601C263.03 47.1901 259.49 50.6601 255.55 53.4701C253.648 54.9094 251.643 56.2063 249.55 57.3501" stroke="#914839" stroke-width="0.75" stroke-linecap="round" stroke-linejoin="round"/>
<path d="M252.75 36.33C248.46 42.33 242.26 49.44 242.26 49.44" stroke="#914839" stroke-width="0.75" stroke-linecap="round" stroke-linejoin="round"/>
<path d="M33.66 312.34C32.99 315.72 37.06 321.93 47.55 324.69L50.23 305.76C44.2197 306.44 38.4997 308.712 33.66 312.34Z" fill="#8FC6C4"/>
<path d="M44.21 305.76C43.84 326 42.71 334.07 42.71 335.38C42.71 335.38 29.21 370.08 25.27 398.03C25.27 398.03 33.15 411.91 56.41 406.1C56.41 406.1 73.48 358.1 77.04 345.51C80.6 332.92 81.17 315.22 81.17 315.22L44.21 305.76Z" fill="#B25E47"/>
<path d="M25.23 181.28C25.7595 182.863 26.6027 184.322 27.7093 185.571C28.8158 186.82 30.1629 187.834 31.67 188.55L37.03 180.41C33.1028 179.455 28.9746 179.759 25.23 181.28Z" fill="#82C47A"/>
<path d="M33.55 177.7C24.37 190.89 14.66 206.3 18.77 218.75C22.88 231.2 45.26 233.83 58.97 218.75L63.97 184.21L33.55 177.7Z" fill="#B25E47"/>
<path d="M56.3799 209.17C50.6399 223.17 40.8699 261.53 33.6599 312.34C33.6599 312.34 66.0299 310.34 81.8999 322.22C82.3499 321.47 90.2899 275.22 91.1899 273.55C92.0899 271.88 97.6299 271.61 98.9799 272.5C100.33 273.39 130.63 291.95 133.98 293.02C152.59 298.86 173.5 267.49 163.82 255.86C159.69 250.86 148.24 239.99 131.17 210.79L56.3799 209.17Z" fill="#6DB5B2"/>
<mask id="mask2_601_3600" style="mask-type:alpha" maskUnits="userSpaceOnUse" x="33" y="209" width="134" height="114">
<path d="M56.3799 209.17C50.6399 223.17 40.8699 261.53 33.6599 312.34C33.6599 312.34 66.0299 310.34 81.8999 322.22C82.3499 321.47 90.2899 275.22 91.1899 273.55C92.0899 271.88 97.6299 271.61 98.9799 272.5C100.33 273.39 130.63 291.95 133.98 293.02C152.59 298.86 173.5 267.49 163.82 255.86C159.69 250.86 148.24 239.99 131.17 210.79L56.3799 209.17Z" fill="#6DB5B2"/>
</mask>
<g mask="url(#mask2_601_3600)">
<path d="M164.92 230.73H159.77V235.88H164.92V230.73Z" stroke="white" stroke-width="0.75" stroke-linecap="round" stroke-linejoin="round"/>
<path d="M139.83 230.73H134.68V235.88H139.83V230.73Z" stroke="white" stroke-width="0.75" stroke-linecap="round" stroke-linejoin="round"/>
<path d="M114.75 230.73H109.6V235.88H114.75V230.73Z" stroke="white" stroke-width="0.75" stroke-linecap="round" stroke-linejoin="round"/>
<path d="M89.67 230.73H84.52V235.88H89.67V230.73Z" stroke="white" stroke-width="0.75" stroke-linecap="round" stroke-linejoin="round"/>
<path d="M64.5799 230.73H59.4299V235.88H64.5799V230.73Z" stroke="white" stroke-width="0.75" stroke-linecap="round" stroke-linejoin="round"/>
<path d="M39.5001 230.73H34.3501V235.88H39.5001V230.73Z" stroke="white" stroke-width="0.75" stroke-linecap="round" stroke-linejoin="round"/>
<path d="M164.92 262.55H159.77V267.7H164.92V262.55Z" stroke="white" stroke-width="0.75" stroke-linecap="round" stroke-linejoin="round"/>
<path d="M139.83 262.55H134.68V267.7H139.83V262.55Z" stroke="white" stroke-width="0.75" stroke-linecap="round" stroke-linejoin="round"/>
<path d="M114.75 262.55H109.6V267.7H114.75V262.55Z" stroke="white" stroke-width="0.75" stroke-linecap="round" stroke-linejoin="round"/>
<path d="M89.67 262.55H84.52V267.7H89.67V262.55Z" stroke="white" stroke-width="0.75" stroke-linecap="round" stroke-linejoin="round"/>
<path d="M64.5799 262.55H59.4299V267.7H64.5799V262.55Z" stroke="white" stroke-width="0.75" stroke-linecap="round" stroke-linejoin="round"/>
<path d="M39.5001 262.55H34.3501V267.7H39.5001V262.55Z" stroke="white" stroke-width="0.75" stroke-linecap="round" stroke-linejoin="round"/>
<path d="M164.92 294.38H159.77V299.53H164.92V294.38Z" stroke="white" stroke-width="0.75" stroke-linecap="round" stroke-linejoin="round"/>
<path d="M139.83 294.38H134.68V299.53H139.83V294.38Z" stroke="white" stroke-width="0.75" stroke-linecap="round" stroke-linejoin="round"/>
<path d="M114.75 294.38H109.6V299.53H114.75V294.38Z" stroke="white" stroke-width="0.75" stroke-linecap="round" stroke-linejoin="round"/>
<path d="M89.67 294.38H84.52V299.53H89.67V294.38Z" stroke="white" stroke-width="0.75" stroke-linecap="round" stroke-linejoin="round"/>
<path d="M64.5799 294.38H59.4299V299.53H64.5799V294.38Z" stroke="white" stroke-width="0.75" stroke-linecap="round" stroke-linejoin="round"/>
<path d="M39.5001 294.38H34.3501V299.53H39.5001V294.38Z" stroke="white" stroke-width="0.75" stroke-linecap="round" stroke-linejoin="round"/>
<path d="M53.6799 212.24H43.3899V222.53H53.6799V212.24Z" stroke="white" stroke-width="0.75" stroke-linecap="round" stroke-linejoin="round"/>
<path d="M79.3801 212.24H69.0901V222.53H79.3801V212.24Z" stroke="white" stroke-width="0.75" stroke-linecap="round" stroke-linejoin="round"/>
<path d="M105.08 212.24H94.79V222.53H105.08V212.24Z" stroke="white" stroke-width="0.75" stroke-linecap="round" stroke-linejoin="round"/>
<path d="M130.78 212.24H120.49V222.53H130.78V212.24Z" stroke="white" stroke-width="0.75" stroke-linecap="round" stroke-linejoin="round"/>
<path d="M156.48 212.24H146.19V222.53H156.48V212.24Z" stroke="white" stroke-width="0.75" stroke-linecap="round" stroke-linejoin="round"/>
<path d="M53.6799 244.07H43.3899V254.36H53.6799V244.07Z" stroke="white" stroke-width="0.75" stroke-linecap="round" stroke-linejoin="round"/>
<path d="M79.3801 244.07H69.0901V254.36H79.3801V244.07Z" stroke="white" stroke-width="0.75" stroke-linecap="round" stroke-linejoin="round"/>
<path d="M105.08 244.07H94.79V254.36H105.08V244.07Z" stroke="white" stroke-width="0.75" stroke-linecap="round" stroke-linejoin="round"/>
<path d="M130.78 244.07H120.49V254.36H130.78V244.07Z" stroke="white" stroke-width="0.75" stroke-linecap="round" stroke-linejoin="round"/>
<path d="M156.48 244.07H146.19V254.36H156.48V244.07Z" stroke="white" stroke-width="0.75" stroke-linecap="round" stroke-linejoin="round"/>
<path d="M53.6799 275.89H43.3899V286.18H53.6799V275.89Z" stroke="white" stroke-width="0.75" stroke-linecap="round" stroke-linejoin="round"/>
<path d="M79.3801 275.89H69.0901V286.18H79.3801V275.89Z" stroke="white" stroke-width="0.75" stroke-linecap="round" stroke-linejoin="round"/>
<path d="M105.08 275.89H94.79V286.18H105.08V275.89Z" stroke="white" stroke-width="0.75" stroke-linecap="round" stroke-linejoin="round"/>
<path d="M130.78 275.89H120.49V286.18H130.78V275.89Z" stroke="white" stroke-width="0.75" stroke-linecap="round" stroke-linejoin="round"/>
<path d="M156.48 275.89H146.19V286.18H156.48V275.89Z" stroke="white" stroke-width="0.75" stroke-linecap="round" stroke-linejoin="round"/>
<path d="M53.6799 307.72H43.3899V318.01H53.6799V307.72Z" stroke="white" stroke-width="0.75" stroke-linecap="round" stroke-linejoin="round"/>
<path d="M79.3801 307.72H69.0901V318.01H79.3801V307.72Z" stroke="white" stroke-width="0.75" stroke-linecap="round" stroke-linejoin="round"/>
<path d="M105.08 307.72H94.79V318.01H105.08V307.72Z" stroke="white" stroke-width="0.75" stroke-linecap="round" stroke-linejoin="round"/>
<path d="M130.78 307.72H120.49V318.01H130.78V307.72Z" stroke="white" stroke-width="0.75" stroke-linecap="round" stroke-linejoin="round"/>
<path d="M156.48 307.72H146.19V318.01H156.48V307.72Z" stroke="white" stroke-width="0.75" stroke-linecap="round" stroke-linejoin="round"/>
</g>
<path d="M88.73 134.15C96.52 123.92 107.35 118.47 125.05 127.83C125.05 127.86 101.22 139.08 88.73 134.15Z" fill="white"/>
<path d="M198.35 147.23C198.35 147.23 157.16 162.23 154.67 165.23C152.18 168.23 145.37 191.03 142.03 202.81C138.69 214.59 135.66 217.44 135.66 217.44C135.66 217.44 106.86 213.22 86.2199 214.85C65.5799 216.48 55.4199 215.97 53.0199 214.94C50.6199 213.91 50.1799 210.04 51.5599 205.83C51.6899 205.43 51.8399 204.97 51.9999 204.45C53.6399 199.45 56.9999 189.31 56.9999 189.31C49.3056 186.546 41.443 184.275 33.4599 182.51C30.7309 181.921 27.9694 181.493 25.1899 181.23C32.0138 171.979 39.3032 163.081 47.0299 154.57C49.8399 151.57 52.8199 148.65 55.8099 145.99C64.8099 137.99 73.8099 131.99 78.3299 130.99C84.3299 129.61 92.5999 131.1 104.71 129.82C128.35 127.32 161.38 118.07 181.33 104.76C183.864 108.419 186.201 112.211 188.33 116.12C192.321 123.397 195.445 131.116 197.64 139.12C197.64 139.12 198.69 144.3 198.35 147.23Z" fill="#A3D49D"/>
<path d="M68.3399 152.7L56.9699 189.36C49.2756 186.596 41.413 184.325 33.4299 182.56C36.4899 177.89 41.5099 174.83 47.4299 176.73C57.0099 179.86 58.1999 153.42 68.3399 152.7Z" fill="#82C47A"/>
<path d="M188.27 116.19C170.94 117.12 142.38 131.68 129.73 149.34C114.89 170.06 93.54 167.34 83.65 152.7C76.29 141.85 68.34 143.23 55.78 146.04C64.78 138.04 73.78 132.04 78.3 131.04C84.3 129.66 92.57 131.15 104.68 129.87C128.32 127.37 161.35 118.12 181.3 104.81C183.824 108.477 186.151 112.275 188.27 116.19Z" fill="#A3D49D"/>
<path d="M69.86 147.78L68.34 152.7L56.97 189.36" stroke="#82C47A" stroke-width="0.75" stroke-linecap="round" stroke-linejoin="round"/>
<path d="M103.5 239.38C111.354 240.272 119.295 240.03 127.08 238.66" stroke="#8FC6C4" stroke-width="0.75" stroke-linecap="round" stroke-linejoin="round"/>
</svg>
